<svg xmlns="http://www.w3.org/2000/svg" xmlns:xlink="http://www.w3.org/1999/xlink" width="100" zoomAndPan="magnify" viewBox="0 0 75 60" height="80" preserveAspectRatio="xMidYMid meet" version="1.0"><defs><filter x="0%" y="0%" width="100%" height="100%" id="d7e3bc1533"><feColorMatrix values="0 0 0 0 1 0 0 0 0 1 0 0 0 0 1 0 0 0 1 0" color-interpolation-filters="sRGB"/></filter><g/><clipPath id="baa155e458"><path d="M 24 26 L 51 26 L 51 27.910156 L 24 27.910156 Z M 24 26 " clip-rule="nonzero"/></clipPath><clipPath id="81417ee0c3"><path d="M 20.082031 9.554688 L 55.261719 9.554688 L 55.261719 27.910156 L 20.082031 27.910156 Z M 20.082031 9.554688 " clip-rule="nonzero"/></clipPath><clipPath id="9e026545e1"><path d="M 0.757812 28.699219 L 47.59375 28.699219 L 47.59375 44.523438 L 0.757812 44.523438 Z M 0.757812 28.699219 " clip-rule="nonzero"/></clipPath><clipPath id="8aae410374"><path d="M 13 0.59375 L 62 0.59375 L 62 29 L 13 29 Z M 13 0.59375 " clip-rule="nonzero"/></clipPath><clipPath id="7d59e8bf44"><path d="M 27.40625 37.074219 L 39.613281 37.074219 L 39.613281 44.523438 L 27.40625 44.523438 Z M 27.40625 37.074219 " clip-rule="nonzero"/></clipPath><clipPath id="b2a85b7263"><path d="M 39.085938 28.699219 L 74.160156 28.699219 L 74.160156 37.539062 L 39.085938 37.539062 Z M 39.085938 28.699219 " clip-rule="nonzero"/></clipPath><clipPath id="b81a4af727"><path d="M 25.242188 13.175781 L 49.714844 13.175781 L 49.714844 26 L 25.242188 26 Z M 25.242188 13.175781 " clip-rule="nonzero"/></clipPath><clipPath id="756a63769e"><path d="M 25.242188 26 L 49.714844 26 L 49.714844 28.472656 L 25.242188 28.472656 Z M 25.242188 26 " clip-rule="nonzero"/></clipPath><clipPath id="a834a693c2"><path d="M 0 0.539062 L 75 0.539062 L 75 33 L 0 33 Z M 0 0.539062 " clip-rule="nonzero"/></clipPath><clipPath id="821134dbc5"><path d="M 0 0.539062 L 75 0.539062 L 75 33 L 0 33 Z M 0 0.539062 " clip-rule="nonzero"/></clipPath><clipPath id="3a951b8c7c"><path d="M 0 1.582031 L 75 1.582031 L 75 33 L 0 33 Z M 0 1.582031 " clip-rule="nonzero"/></clipPath><linearGradient x1="165.483994" gradientTransform="matrix(0.173977, 0, 0, 0.174068, 8.918963, 18.700305)" y1="-98.335999" x2="165.483994" gradientUnits="userSpaceOnUse" y2="82.149922" id="656b0a222f"><stop stop-opacity="1" stop-color="rgb(13.328552%, 38.42926%, 7.839966%)" offset="0"/><stop stop-opacity="1" stop-color="rgb(13.328552%, 38.42926%, 7.839966%)" offset="0.5"/><stop stop-opacity="1" stop-color="rgb(13.328552%, 38.42926%, 7.839966%)" offset="0.5625"/><stop stop-opacity="1" stop-color="rgb(13.328552%, 38.430786%, 7.839966%)" offset="0.578125"/><stop stop-opacity="1" stop-color="rgb(13.482666%, 38.922119%, 7.917786%)" offset="0.582031"/><stop stop-opacity="1" stop-color="rgb(13.635254%, 39.411926%, 7.997131%)" offset="0.585938"/><stop stop-opacity="1" stop-color="rgb(13.786316%, 39.900208%, 8.074951%)" offset="0.589844"/><stop stop-opacity="1" stop-color="rgb(13.938904%, 40.388489%, 8.154297%)" offset="0.59375"/><stop stop-opacity="1" stop-color="rgb(14.089966%, 40.87677%, 8.232117%)" offset="0.597656"/><stop stop-opacity="1" stop-color="rgb(14.242554%, 41.365051%, 8.309937%)" offset="0.601562"/><stop stop-opacity="1" stop-color="rgb(14.395142%, 41.853333%, 8.387756%)" offset="0.605469"/><stop stop-opacity="1" stop-color="rgb(14.547729%, 42.341614%, 8.467102%)" offset="0.609375"/><stop stop-opacity="1" stop-color="rgb(14.698792%, 42.829895%, 8.544922%)" offset="0.613281"/><stop stop-opacity="1" stop-color="rgb(14.851379%, 43.319702%, 8.624268%)" offset="0.617188"/><stop stop-opacity="1" stop-color="rgb(15.002441%, 43.807983%, 8.702087%)" offset="0.621094"/><stop stop-opacity="1" stop-color="rgb(15.155029%, 44.296265%, 8.779907%)" offset="0.625"/><stop stop-opacity="1" stop-color="rgb(15.307617%, 44.784546%, 8.857727%)" offset="0.628906"/><stop stop-opacity="1" stop-color="rgb(15.460205%, 45.272827%, 8.937073%)" offset="0.632812"/><stop stop-opacity="1" stop-color="rgb(15.611267%, 45.761108%, 9.014893%)" offset="0.636719"/><stop stop-opacity="1" stop-color="rgb(15.763855%, 46.24939%, 9.094238%)" offset="0.640625"/><stop stop-opacity="1" stop-color="rgb(15.914917%, 46.737671%, 9.172058%)" offset="0.644531"/><stop stop-opacity="1" stop-color="rgb(16.067505%, 47.227478%, 9.251404%)" offset="0.648438"/><stop stop-opacity="1" stop-color="rgb(16.218567%, 47.715759%, 9.329224%)" offset="0.652344"/><stop stop-opacity="1" stop-color="rgb(16.371155%, 48.204041%, 9.407043%)" offset="0.65625"/><stop stop-opacity="1" stop-color="rgb(16.523743%, 48.692322%, 9.484863%)" offset="0.660156"/><stop stop-opacity="1" stop-color="rgb(16.676331%, 49.180603%, 9.564209%)" offset="0.664062"/><stop stop-opacity="1" stop-color="rgb(16.827393%, 49.668884%, 9.642029%)" offset="0.667969"/><stop stop-opacity="1" stop-color="rgb(16.97998%, 50.157166%, 9.721375%)" offset="0.671875"/><stop stop-opacity="1" stop-color="rgb(17.131042%, 50.645447%, 9.799194%)" offset="0.675781"/><stop stop-opacity="1" stop-color="rgb(17.28363%, 51.133728%, 9.87854%)" offset="0.679687"/><stop stop-opacity="1" stop-color="rgb(17.436218%, 51.622009%, 9.95636%)" offset="0.683594"/><stop stop-opacity="1" stop-color="rgb(17.588806%, 52.111816%, 10.03418%)" offset="0.6875"/><stop stop-opacity="1" stop-color="rgb(17.739868%, 52.600098%, 10.112%)" offset="0.691406"/><stop stop-opacity="1" stop-color="rgb(17.892456%, 53.088379%, 10.191345%)" offset="0.695312"/><stop stop-opacity="1" stop-color="rgb(18.043518%, 53.57666%, 10.269165%)" offset="0.699219"/><stop stop-opacity="1" stop-color="rgb(18.196106%, 54.064941%, 10.348511%)" offset="0.703125"/><stop stop-opacity="1" stop-color="rgb(18.348694%, 54.553223%, 10.426331%)" offset="0.707031"/><stop stop-opacity="1" stop-color="rgb(18.501282%, 55.041504%, 10.50415%)" offset="0.710938"/><stop stop-opacity="1" stop-color="rgb(18.652344%, 55.529785%, 10.58197%)" offset="0.714844"/><stop stop-opacity="1" stop-color="rgb(18.804932%, 56.019592%, 10.661316%)" offset="0.71875"/><stop stop-opacity="1" stop-color="rgb(18.955994%, 56.507874%, 10.739136%)" offset="0.722656"/><stop stop-opacity="1" stop-color="rgb(19.108582%, 56.996155%, 10.818481%)" offset="0.726562"/><stop stop-opacity="1" stop-color="rgb(19.259644%, 57.484436%, 10.896301%)" offset="0.730469"/><stop stop-opacity="1" stop-color="rgb(19.412231%, 57.972717%, 10.975647%)" offset="0.734375"/><stop stop-opacity="1" stop-color="rgb(19.564819%, 58.460999%, 11.053467%)" offset="0.738281"/><stop stop-opacity="1" stop-color="rgb(19.717407%, 58.94928%, 11.131287%)" offset="0.742188"/><stop stop-opacity="1" stop-color="rgb(19.868469%, 59.437561%, 11.209106%)" offset="0.746094"/><stop stop-opacity="1" stop-color="rgb(20.021057%, 59.927368%, 11.288452%)" offset="0.75"/><stop stop-opacity="1" stop-color="rgb(20.172119%, 60.415649%, 11.366272%)" offset="0.753906"/><stop stop-opacity="1" stop-color="rgb(20.324707%, 60.903931%, 11.445618%)" offset="0.757812"/><stop stop-opacity="1" stop-color="rgb(20.477295%, 61.392212%, 11.523438%)" offset="0.761719"/><stop stop-opacity="1" stop-color="rgb(20.629883%, 61.880493%, 11.602783%)" offset="0.765625"/><stop stop-opacity="1" stop-color="rgb(20.780945%, 62.368774%, 11.680603%)" offset="0.769531"/><stop stop-opacity="1" stop-color="rgb(20.933533%, 62.857056%, 11.758423%)" offset="0.773438"/><stop stop-opacity="1" stop-color="rgb(21.084595%, 63.345337%, 11.836243%)" offset="0.777344"/><stop stop-opacity="1" stop-color="rgb(21.237183%, 63.835144%, 11.915588%)" offset="0.78125"/><stop stop-opacity="1" stop-color="rgb(21.388245%, 64.323425%, 11.993408%)" offset="0.785156"/><stop stop-opacity="1" stop-color="rgb(21.540833%, 64.811707%, 12.072754%)" offset="0.789062"/><stop stop-opacity="1" stop-color="rgb(21.69342%, 65.299988%, 12.150574%)" offset="0.792969"/><stop stop-opacity="1" stop-color="rgb(21.846008%, 65.788269%, 12.228394%)" offset="0.796875"/><stop stop-opacity="1" stop-color="rgb(21.99707%, 66.27655%, 12.306213%)" offset="0.800781"/><stop stop-opacity="1" stop-color="rgb(22.149658%, 66.764832%, 12.385559%)" offset="0.804688"/><stop stop-opacity="1" stop-color="rgb(22.30072%, 67.253113%, 12.463379%)" offset="0.808594"/><stop stop-opacity="1" stop-color="rgb(22.453308%, 67.74292%, 12.542725%)" offset="0.8125"/><stop stop-opacity="1" stop-color="rgb(22.605896%, 68.231201%, 12.620544%)" offset="0.816406"/><stop stop-opacity="1" stop-color="rgb(22.758484%, 68.719482%, 12.69989%)" offset="0.820313"/><stop stop-opacity="1" stop-color="rgb(22.909546%, 69.207764%, 12.77771%)" offset="0.824219"/><stop stop-opacity="1" stop-color="rgb(23.062134%, 69.696045%, 12.85553%)" offset="0.828125"/><stop stop-opacity="1" stop-color="rgb(23.213196%, 70.184326%, 12.93335%)" offset="0.832031"/><stop stop-opacity="1" stop-color="rgb(23.365784%, 70.672607%, 13.012695%)" offset="0.835938"/><stop stop-opacity="1" stop-color="rgb(23.518372%, 71.160889%, 13.090515%)" offset="0.839844"/><stop stop-opacity="1" stop-color="rgb(23.670959%, 71.64917%, 13.169861%)" offset="0.84375"/><stop stop-opacity="1" stop-color="rgb(23.822021%, 72.137451%, 13.247681%)" offset="0.847656"/><stop stop-opacity="1" stop-color="rgb(23.974609%, 72.627258%, 13.327026%)" offset="0.851563"/><stop stop-opacity="1" stop-color="rgb(24.125671%, 73.11554%, 13.404846%)" offset="0.855469"/><stop stop-opacity="1" stop-color="rgb(24.278259%, 73.603821%, 13.482666%)" offset="0.859375"/><stop stop-opacity="1" stop-color="rgb(24.429321%, 74.092102%, 13.560486%)" offset="0.863281"/><stop stop-opacity="1" stop-color="rgb(24.581909%, 74.580383%, 13.639832%)" offset="0.867188"/><stop stop-opacity="1" stop-color="rgb(24.734497%, 75.068665%, 13.717651%)" offset="0.871094"/><stop stop-opacity="1" stop-color="rgb(24.887085%, 75.556946%, 13.796997%)" offset="0.875"/><stop stop-opacity="1" stop-color="rgb(25.038147%, 76.045227%, 13.874817%)" offset="0.878906"/><stop stop-opacity="1" stop-color="rgb(25.190735%, 76.535034%, 13.952637%)" offset="0.882812"/><stop stop-opacity="1" stop-color="rgb(25.341797%, 77.023315%, 14.030457%)" offset="0.886719"/><stop stop-opacity="1" stop-color="rgb(25.494385%, 77.511597%, 14.109802%)" offset="0.890625"/><stop stop-opacity="1" stop-color="rgb(25.646973%, 77.999878%, 14.187622%)" offset="0.894531"/><stop stop-opacity="1" stop-color="rgb(25.799561%, 78.488159%, 14.266968%)" offset="0.898438"/><stop stop-opacity="1" stop-color="rgb(25.950623%, 78.97644%, 14.344788%)" offset="0.902344"/><stop stop-opacity="1" stop-color="rgb(26.10321%, 79.464722%, 14.424133%)" offset="0.90625"/><stop stop-opacity="1" stop-color="rgb(26.185608%, 79.73175%, 14.466858%)" offset="0.910156"/><stop stop-opacity="1" stop-color="rgb(26.269531%, 79.998779%, 14.509583%)" offset="0.914062"/><stop stop-opacity="1" stop-color="rgb(26.269531%, 79.998779%, 14.509583%)" offset="0.921875"/><stop stop-opacity="1" stop-color="rgb(26.269531%, 79.998779%, 14.509583%)" offset="0.9375"/><stop stop-opacity="1" stop-color="rgb(26.269531%, 79.998779%, 14.509583%)" offset="1"/></linearGradient><clipPath id="3353d287ff"><rect x="0" width="75" y="0" height="33"/></clipPath><clipPath id="7d547e91ef"><path d="M 0 0.539062 L 75 0.539062 L 75 33 L 0 33 Z M 0 0.539062 " clip-rule="nonzero"/></clipPath><clipPath id="2fbf29ba35"><rect x="0" width="75" y="0" height="33"/></clipPath><clipPath id="5f5a0c9aca"><rect x="0" width="75" y="0" height="33"/></clipPath><mask id="90cd588167"><g filter="url(#d7e3bc1533)"><g transform="matrix(1, 0, 0, 1, 0, -0.000000000000003553)"><g clip-path="url(#5f5a0c9aca)"><g clip-path="url(#7d547e91ef)"><g transform="matrix(1, 0, 0, 1, 0, -0.000000000000003553)"><g clip-path="url(#2fbf29ba35)"><g fill="#000000" fill-opacity="1"><g transform="translate(16.666692, 27.313898)"><g><path d="M 5.109375 -5.09375 C 5.066406 -4.96875 5.023438 -4.894531 4.984375 -4.875 C 4.972656 -4.863281 4.957031 -4.863281 4.9375 -4.875 C 4.800781 -4.914062 4.664062 -4.9375 4.53125 -4.9375 C 4.382812 -4.9375 4.296875 -4.828125 4.265625 -4.609375 C 4.265625 -4.492188 4.257812 -4.328125 4.25 -4.109375 C 4.226562 -3.398438 4.21875 -2.972656 4.21875 -2.828125 C 4.21875 -2.554688 4.253906 -2.175781 4.328125 -1.6875 C 4.359375 -1.488281 4.390625 -1.285156 4.421875 -1.078125 C 4.441406 -1.023438 4.46875 -0.96875 4.5 -0.90625 C 4.5625 -0.769531 4.59375 -0.648438 4.59375 -0.546875 C 4.59375 -0.503906 4.59375 -0.472656 4.59375 -0.453125 C 4.550781 -0.335938 4.515625 -0.265625 4.484375 -0.234375 C 4.453125 -0.210938 4.378906 -0.179688 4.265625 -0.140625 C 4.222656 -0.128906 4.171875 -0.125 4.109375 -0.125 C 4.023438 -0.125 3.945312 -0.140625 3.875 -0.171875 C 3.863281 -0.179688 3.832031 -0.195312 3.78125 -0.21875 C 3.78125 -0.457031 3.765625 -0.640625 3.734375 -0.765625 C 3.703125 -0.890625 3.625 -1.0625 3.5 -1.28125 C 3.351562 -1.539062 3.171875 -1.773438 2.953125 -1.984375 C 2.640625 -2.265625 2.335938 -2.40625 2.046875 -2.40625 C 1.835938 -2.40625 1.597656 -2.320312 1.328125 -2.15625 C 0.921875 -1.9375 0.71875 -1.695312 0.71875 -1.4375 C 0.71875 -1.375 0.757812 -1.34375 0.84375 -1.34375 C 0.957031 -1.34375 1.140625 -1.398438 1.390625 -1.515625 C 1.453125 -1.546875 1.515625 -1.5625 1.578125 -1.5625 C 1.753906 -1.5625 1.863281 -1.460938 1.90625 -1.265625 C 1.925781 -1.179688 1.9375 -1.039062 1.9375 -0.84375 C 1.9375 -0.644531 1.914062 -0.523438 1.875 -0.484375 C 1.707031 -0.367188 1.503906 -0.3125 1.265625 -0.3125 C 1.140625 -0.3125 1.054688 -0.320312 1.015625 -0.34375 C 0.523438 -0.457031 0.28125 -0.910156 0.28125 -1.703125 L 0.28125 -1.875 C 0.289062 -1.9375 0.296875 -1.988281 0.296875 -2.03125 C 0.359375 -2.738281 0.664062 -3.09375 1.21875 -3.09375 C 1.632812 -3.09375 2.039062 -3.007812 2.4375 -2.84375 C 2.71875 -2.71875 3.109375 -2.488281 3.609375 -2.15625 C 3.578125 -2.445312 3.5625 -2.847656 3.5625 -3.359375 C 3.5625 -3.972656 3.578125 -4.398438 3.609375 -4.640625 C 3.515625 -4.679688 3.253906 -4.734375 2.828125 -4.796875 C 2.191406 -4.898438 1.660156 -4.953125 1.234375 -4.953125 C 0.773438 -4.953125 0.332031 -4.925781 -0.09375 -4.875 C -0.1875 -4.914062 -0.234375 -5.03125 -0.234375 -5.21875 C -0.234375 -5.300781 -0.195312 -5.367188 -0.125 -5.421875 C -0.101562 -5.441406 -0.0703125 -5.46875 -0.03125 -5.5 C 0.28125 -5.539062 0.597656 -5.5625 0.921875 -5.5625 C 1.472656 -5.5625 2.234375 -5.46875 3.203125 -5.28125 C 3.316406 -5.25 3.476562 -5.207031 3.6875 -5.15625 C 3.789062 -5.394531 3.984375 -5.519531 4.265625 -5.53125 C 4.304688 -5.53125 4.375 -5.53125 4.46875 -5.53125 C 4.664062 -5.53125 4.832031 -5.519531 4.96875 -5.5 C 5.070312 -5.394531 5.125 -5.289062 5.125 -5.1875 C 5.125 -5.164062 5.117188 -5.132812 5.109375 -5.09375 Z M 5.109375 -5.09375 "/></g></g></g><g fill="#000000" fill-opacity="1"><g transform="translate(21.488488, 27.313898)"><g><path d="M 1.140625 2.8125 C 1.160156 2.851562 1.171875 2.894531 1.171875 2.9375 C 1.015625 2.851562 0.859375 2.769531 0.703125 2.6875 L -0.4375 1.546875 C -0.726562 1.972656 -1.109375 2.1875 -1.578125 2.1875 C -2.054688 2.1875 -2.363281 1.925781 -2.5 1.40625 C -2.519531 1.34375 -2.53125 1.253906 -2.53125 1.140625 C -2.53125 0.515625 -2.296875 0.109375 -1.828125 -0.078125 C -1.796875 -0.0976562 -1.710938 -0.125 -1.578125 -0.15625 C -1.359375 -0.0820312 -1.25 0.0703125 -1.25 0.3125 C -1.25 0.375 -1.253906 0.421875 -1.265625 0.453125 C -1.460938 0.453125 -1.644531 0.554688 -1.8125 0.765625 C -1.976562 0.972656 -2.0625 1.175781 -2.0625 1.375 C -2.0625 1.53125 -1.976562 1.609375 -1.8125 1.609375 C -1.707031 1.609375 -1.578125 1.570312 -1.421875 1.5 C -1.148438 1.382812 -0.945312 1.144531 -0.8125 0.78125 C -0.78125 0.769531 -0.675781 0.742188 -0.5 0.703125 C -0.363281 0.671875 -0.203125 0.835938 -0.015625 1.203125 C 0.109375 1.429688 0.195312 1.582031 0.25 1.65625 C 0.34375 1.769531 0.472656 1.890625 0.640625 2.015625 C 0.816406 2.140625 0.929688 2.25 0.984375 2.34375 C 0.984375 2.375 1.035156 2.53125 1.140625 2.8125 Z M 0.484375 -5.484375 C 0.484375 -5.515625 0.488281 -5.460938 0.5 -5.328125 C 0.5 -5.328125 0.5 -5.273438 0.5 -5.171875 C 0.5 -5.003906 0.488281 -4.910156 0.46875 -4.890625 C 0.4375 -4.867188 0.335938 -4.90625 0.171875 -5 C 0.148438 -5.007812 0.128906 -5.015625 0.109375 -5.015625 C 0.0664062 -5.015625 0.0351562 -5 0.015625 -4.96875 C -0.0546875 -4.90625 -0.101562 -4.875 -0.125 -4.875 C -0.144531 -4.976562 -0.15625 -5.078125 -0.15625 -5.171875 C -0.15625 -5.253906 -0.144531 -5.332031 -0.125 -5.40625 L -0.03125 -5.53125 C 0.0195312 -5.570312 0.0703125 -5.59375 0.125 -5.59375 C 0.1875 -5.59375 0.265625 -5.578125 0.359375 -5.546875 C 0.390625 -5.535156 0.429688 -5.515625 0.484375 -5.484375 Z M 0.484375 -5.484375 "/></g></g></g><g fill="#000000" fill-opacity="1"><g transform="translate(22.692925, 27.313898)"><g><path d="M 2.734375 -5.515625 C 2.804688 -5.515625 2.84375 -5.441406 2.84375 -5.296875 C 2.84375 -5.242188 2.832031 -5.164062 2.8125 -5.0625 C 2.78125 -4.945312 2.742188 -4.890625 2.703125 -4.890625 C 2.492188 -4.890625 2.316406 -4.8125 2.171875 -4.65625 C 2.109375 -4.59375 2.015625 -4.488281 1.890625 -4.34375 C 1.609375 -4.0625 1.363281 -3.570312 1.15625 -2.875 C 1.09375 -2.65625 1.0625 -2.335938 1.0625 -1.921875 C 1.0625 -1.429688 1.140625 -1.046875 1.296875 -0.765625 C 1.335938 -0.691406 1.378906 -0.65625 1.421875 -0.65625 C 1.429688 -0.65625 1.441406 -0.660156 1.453125 -0.671875 C 1.503906 -0.847656 1.535156 -0.941406 1.546875 -0.953125 C 1.585938 -1.085938 1.632812 -1.171875 1.6875 -1.203125 C 1.75 -1.242188 1.828125 -1.265625 1.921875 -1.265625 C 2.078125 -1.265625 2.242188 -1.210938 2.421875 -1.109375 C 2.484375 -1.066406 2.515625 -0.992188 2.515625 -0.890625 C 2.515625 -0.734375 2.472656 -0.578125 2.390625 -0.421875 C 2.222656 -0.148438 1.988281 -0.015625 1.6875 -0.015625 C 1.488281 -0.015625 1.210938 -0.195312 0.859375 -0.5625 C 0.773438 -0.644531 0.695312 -0.753906 0.625 -0.890625 C 0.4375 -1.242188 0.34375 -1.65625 0.34375 -2.125 L 0.34375 -2.28125 C 0.351562 -2.363281 0.359375 -2.425781 0.359375 -2.46875 C 0.410156 -2.976562 0.515625 -3.378906 0.671875 -3.671875 C 0.941406 -4.179688 1.191406 -4.546875 1.421875 -4.765625 C 1.109375 -4.867188 0.835938 -4.921875 0.609375 -4.921875 C 0.441406 -4.921875 0.234375 -4.898438 -0.015625 -4.859375 C -0.0546875 -4.921875 -0.0859375 -4.984375 -0.109375 -5.046875 C -0.171875 -5.203125 -0.203125 -5.3125 -0.203125 -5.375 C -0.203125 -5.46875 -0.164062 -5.515625 -0.09375 -5.515625 L 0.34375 -5.515625 C 0.851562 -5.515625 1.34375 -5.363281 1.8125 -5.0625 C 1.894531 -5.125 2.035156 -5.234375 2.234375 -5.390625 C 2.347656 -5.472656 2.476562 -5.515625 2.625 -5.515625 C 2.675781 -5.515625 2.710938 -5.515625 2.734375 -5.515625 Z M 2.734375 -5.515625 "/></g></g></g><g fill="#000000" fill-opacity="1"><g transform="translate(25.318568, 27.313898)"><g><path d="M 5.09375 -5.0625 C 5.082031 -5 5.054688 -4.953125 5.015625 -4.921875 C 5.003906 -4.910156 4.976562 -4.894531 4.9375 -4.875 C 4.914062 -4.882812 4.875 -4.890625 4.8125 -4.890625 C 4.75 -4.898438 4.664062 -4.84375 4.5625 -4.71875 C 4.320312 -4.613281 4.203125 -3.976562 4.203125 -2.8125 L 4.203125 -2.625 C 4.203125 -2.394531 4.222656 -2.046875 4.265625 -1.578125 C 4.285156 -1.390625 4.304688 -1.179688 4.328125 -0.953125 C 4.367188 -0.910156 4.410156 -0.859375 4.453125 -0.796875 C 4.523438 -0.679688 4.550781 -0.578125 4.53125 -0.484375 C 4.519531 -0.460938 4.507812 -0.421875 4.5 -0.359375 C 4.476562 -0.328125 4.394531 -0.28125 4.25 -0.21875 C 4.195312 -0.195312 4.148438 -0.1875 4.109375 -0.1875 C 3.992188 -0.1875 3.898438 -0.203125 3.828125 -0.234375 C 3.785156 -0.242188 3.738281 -0.265625 3.6875 -0.296875 C 3.625 -0.367188 3.554688 -0.453125 3.484375 -0.546875 C 3.148438 -0.960938 2.816406 -1.210938 2.484375 -1.296875 C 2.253906 -1.347656 2.007812 -1.375 1.75 -1.375 C 1.476562 -1.375 1.191406 -1.351562 0.890625 -1.3125 C 0.742188 -1.40625 0.628906 -1.492188 0.546875 -1.578125 C 0.359375 -1.742188 0.265625 -1.875 0.265625 -1.96875 C 0.265625 -2.101562 0.394531 -2.347656 0.65625 -2.703125 C 0.832031 -2.941406 1.109375 -3.257812 1.484375 -3.65625 C 1.640625 -3.820312 1.945312 -4.066406 2.40625 -4.390625 C 2.539062 -4.492188 2.75 -4.640625 3.03125 -4.828125 C 2.519531 -4.953125 2.125 -5.015625 1.84375 -5.015625 C 0.90625 -5.015625 0.273438 -4.960938 -0.046875 -4.859375 C -0.148438 -4.890625 -0.203125 -5.003906 -0.203125 -5.203125 C -0.203125 -5.367188 -0.195312 -5.46875 -0.1875 -5.5 C 0.0703125 -5.519531 0.414062 -5.53125 0.84375 -5.53125 C 1.207031 -5.53125 1.859375 -5.488281 2.796875 -5.40625 C 3.128906 -5.375 3.410156 -5.332031 3.640625 -5.28125 C 3.734375 -5.320312 3.84375 -5.34375 3.96875 -5.34375 C 4.125 -5.34375 4.273438 -5.3125 4.421875 -5.25 C 4.484375 -5.34375 4.597656 -5.410156 4.765625 -5.453125 C 4.816406 -5.460938 4.894531 -5.472656 5 -5.484375 C 5.007812 -5.460938 5.03125 -5.421875 5.0625 -5.359375 C 5.09375 -5.265625 5.101562 -5.164062 5.09375 -5.0625 Z M 2.140625 0.203125 C 2.109375 0.210938 2.0625 0.234375 2 0.265625 C 1.894531 0.234375 1.820312 0.210938 1.78125 0.203125 C 1.507812 0.117188 1.375 -0.0507812 1.375 -0.3125 C 1.375 -0.394531 1.390625 -0.484375 1.421875 -0.578125 C 1.421875 -0.597656 1.425781 -0.613281 1.4375 -0.625 C 1.507812 -0.675781 1.566406 -0.707031 1.609375 -0.71875 C 1.753906 -0.78125 1.867188 -0.8125 1.953125 -0.8125 C 1.984375 -0.8125 2.007812 -0.804688 2.03125 -0.796875 C 2.351562 -0.671875 2.515625 -0.484375 2.515625 -0.234375 C 2.515625 -0.0859375 2.390625 0.0546875 2.140625 0.203125 Z M 3.703125 -4.4375 C 2.734375 -4.039062 1.984375 -3.289062 1.453125 -2.1875 L 2 -2.109375 C 2.375 -2.054688 2.90625 -1.757812 3.59375 -1.21875 C 3.519531 -1.632812 3.484375 -2.066406 3.484375 -2.515625 C 3.484375 -3.160156 3.554688 -3.800781 3.703125 -4.4375 Z M 3.703125 -4.4375 "/></g></g></g><g fill="#000000" fill-opacity="1"><g transform="translate(30.875462, 27.313898)"><g><path d="M 5.09375 -5.0625 C 5.082031 -5 5.054688 -4.953125 5.015625 -4.921875 C 5.003906 -4.910156 4.976562 -4.894531 4.9375 -4.875 C 4.914062 -4.882812 4.875 -4.890625 4.8125 -4.890625 C 4.75 -4.898438 4.664062 -4.84375 4.5625 -4.71875 C 4.320312 -4.613281 4.203125 -3.976562 4.203125 -2.8125 L 4.203125 -2.625 C 4.203125 -2.394531 4.222656 -2.046875 4.265625 -1.578125 C 4.285156 -1.390625 4.304688 -1.179688 4.328125 -0.953125 C 4.367188 -0.910156 4.410156 -0.859375 4.453125 -0.796875 C 4.523438 -0.679688 4.550781 -0.578125 4.53125 -0.484375 C 4.519531 -0.460938 4.507812 -0.421875 4.5 -0.359375 C 4.476562 -0.328125 4.394531 -0.28125 4.25 -0.21875 C 4.195312 -0.195312 4.148438 -0.1875 4.109375 -0.1875 C 3.992188 -0.1875 3.898438 -0.203125 3.828125 -0.234375 C 3.785156 -0.242188 3.738281 -0.265625 3.6875 -0.296875 C 3.625 -0.367188 3.554688 -0.453125 3.484375 -0.546875 C 3.148438 -0.960938 2.816406 -1.210938 2.484375 -1.296875 C 2.253906 -1.347656 2.007812 -1.375 1.75 -1.375 C 1.476562 -1.375 1.191406 -1.351562 0.890625 -1.3125 C 0.742188 -1.40625 0.628906 -1.492188 0.546875 -1.578125 C 0.359375 -1.742188 0.265625 -1.875 0.265625 -1.96875 C 0.265625 -2.101562 0.394531 -2.347656 0.65625 -2.703125 C 0.832031 -2.941406 1.109375 -3.257812 1.484375 -3.65625 C 1.640625 -3.820312 1.945312 -4.066406 2.40625 -4.390625 C 2.539062 -4.492188 2.75 -4.640625 3.03125 -4.828125 C 2.519531 -4.953125 2.125 -5.015625 1.84375 -5.015625 C 0.90625 -5.015625 0.273438 -4.960938 -0.046875 -4.859375 C -0.148438 -4.890625 -0.203125 -5.003906 -0.203125 -5.203125 C -0.203125 -5.367188 -0.195312 -5.46875 -0.1875 -5.5 C 0.0703125 -5.519531 0.414062 -5.53125 0.84375 -5.53125 C 1.207031 -5.53125 1.859375 -5.488281 2.796875 -5.40625 C 3.128906 -5.375 3.410156 -5.332031 3.640625 -5.28125 C 3.734375 -5.320312 3.84375 -5.34375 3.96875 -5.34375 C 4.125 -5.34375 4.273438 -5.3125 4.421875 -5.25 C 4.484375 -5.34375 4.597656 -5.410156 4.765625 -5.453125 C 4.816406 -5.460938 4.894531 -5.472656 5 -5.484375 C 5.007812 -5.460938 5.03125 -5.421875 5.0625 -5.359375 C 5.09375 -5.265625 5.101562 -5.164062 5.09375 -5.0625 Z M 2.140625 0.203125 C 2.109375 0.210938 2.0625 0.234375 2 0.265625 C 1.894531 0.234375 1.820312 0.210938 1.78125 0.203125 C 1.507812 0.117188 1.375 -0.0507812 1.375 -0.3125 C 1.375 -0.394531 1.390625 -0.484375 1.421875 -0.578125 C 1.421875 -0.597656 1.425781 -0.613281 1.4375 -0.625 C 1.507812 -0.675781 1.566406 -0.707031 1.609375 -0.71875 C 1.753906 -0.78125 1.867188 -0.8125 1.953125 -0.8125 C 1.984375 -0.8125 2.007812 -0.804688 2.03125 -0.796875 C 2.351562 -0.671875 2.515625 -0.484375 2.515625 -0.234375 C 2.515625 -0.0859375 2.390625 0.0546875 2.140625 0.203125 Z M 3.703125 -4.4375 C 2.734375 -4.039062 1.984375 -3.289062 1.453125 -2.1875 L 2 -2.109375 C 2.375 -2.054688 2.90625 -1.757812 3.59375 -1.21875 C 3.519531 -1.632812 3.484375 -2.066406 3.484375 -2.515625 C 3.484375 -3.160156 3.554688 -3.800781 3.703125 -4.4375 Z M 3.703125 -4.4375 "/></g></g></g><g fill="#000000" fill-opacity="1"><g transform="translate(36.432356, 27.313898)"><g/></g></g><g fill="#000000" fill-opacity="1"><g transform="translate(39.469873, 27.313898)"><g><path d="M 8.53125 -5.234375 C 8.53125 -5.160156 8.535156 -5.097656 8.546875 -5.046875 C 8.546875 -4.941406 8.492188 -4.890625 8.390625 -4.890625 L 8 -4.890625 C 7.894531 -4.890625 7.820312 -4.882812 7.78125 -4.875 L 7.734375 -3.015625 C 7.734375 -2.679688 7.753906 -1.941406 7.796875 -0.796875 C 7.847656 -0.628906 7.875 -0.507812 7.875 -0.4375 C 7.875 -0.289062 7.835938 -0.203125 7.765625 -0.171875 C 7.640625 -0.109375 7.535156 -0.078125 7.453125 -0.078125 C 7.328125 -0.078125 7.210938 -0.132812 7.109375 -0.25 C 7.078125 -0.289062 7.0625 -0.410156 7.0625 -0.609375 C 7.0625 -0.898438 7.070312 -1.082031 7.09375 -1.15625 L 7.125 -4.453125 C 7.125 -4.691406 7.109375 -4.820312 7.078125 -4.84375 C 7.054688 -4.875 6.945312 -4.898438 6.75 -4.921875 C 6.601562 -4.941406 6.492188 -4.953125 6.421875 -4.953125 C 6.347656 -4.953125 6.273438 -4.941406 6.203125 -4.921875 C 6.148438 -4.003906 6.125 -3.4375 6.125 -3.21875 C 6.125 -2.601562 6.160156 -2.050781 6.234375 -1.5625 C 6.265625 -1.34375 6.332031 -1.125 6.4375 -0.90625 L 6.578125 -0.453125 C 6.554688 -0.398438 6.539062 -0.359375 6.53125 -0.328125 C 6.445312 -0.160156 6.300781 -0.078125 6.09375 -0.078125 C 6.007812 -0.078125 5.914062 -0.09375 5.8125 -0.125 C 5.800781 -0.125 5.78125 -0.128906 5.75 -0.140625 C 5.75 -0.441406 5.671875 -0.726562 5.515625 -1 C 5.335938 -1.300781 5.109375 -1.453125 4.828125 -1.453125 C 4.773438 -1.453125 4.722656 -1.445312 4.671875 -1.4375 C 4.503906 -1.257812 4.367188 -1.128906 4.265625 -1.046875 C 4.015625 -0.859375 3.707031 -0.765625 3.34375 -0.765625 C 3.101562 -0.765625 2.863281 -0.796875 2.625 -0.859375 C 2.613281 -0.867188 2.484375 -0.910156 2.234375 -0.984375 C 1.910156 -1.066406 1.5625 -1.234375 1.1875 -1.484375 C 0.84375 -1.710938 0.550781 -1.957031 0.3125 -2.21875 C 0.21875 -2.3125 0.171875 -2.410156 0.171875 -2.515625 C 0.171875 -2.609375 0.207031 -2.6875 0.28125 -2.75 C 0.320312 -2.78125 0.351562 -2.796875 0.375 -2.796875 C 0.457031 -2.796875 0.554688 -2.726562 0.671875 -2.59375 C 0.859375 -2.363281 1.070312 -2.179688 1.3125 -2.046875 C 1.507812 -1.921875 1.765625 -1.804688 2.078125 -1.703125 C 2.390625 -1.609375 2.648438 -1.5625 2.859375 -1.5625 C 3.015625 -1.5625 3.179688 -1.585938 3.359375 -1.640625 C 3.890625 -1.765625 4.15625 -2.164062 4.15625 -2.84375 L 4.15625 -3.0625 C 4.144531 -3.125 4.140625 -3.164062 4.140625 -3.1875 C 4.097656 -3.476562 4.03125 -3.757812 3.9375 -4.03125 C 3.769531 -4.539062 3.550781 -4.796875 3.28125 -4.796875 C 3.125 -4.796875 2.988281 -4.742188 2.875 -4.640625 C 2.769531 -4.546875 2.71875 -4.425781 2.71875 -4.28125 C 2.71875 -4.226562 2.8125 -4.164062 3 -4.09375 C 3.195312 -4.03125 3.296875 -3.941406 3.296875 -3.828125 C 3.296875 -3.640625 3.191406 -3.457031 2.984375 -3.28125 C 2.828125 -3.132812 2.664062 -3.0625 2.5 -3.0625 C 2.28125 -3.0625 2.09375 -3.160156 1.9375 -3.359375 C 1.789062 -3.546875 1.71875 -3.75 1.71875 -3.96875 C 1.71875 -4.269531 1.847656 -4.554688 2.109375 -4.828125 C 1.890625 -4.890625 1.515625 -4.921875 0.984375 -4.921875 C 0.398438 -4.921875 0.0546875 -4.90625 -0.046875 -4.875 C -0.0664062 -4.882812 -0.0820312 -4.890625 -0.09375 -4.890625 C -0.175781 -4.921875 -0.21875 -5.003906 -0.21875 -5.140625 C -0.21875 -5.222656 -0.191406 -5.316406 -0.140625 -5.421875 C -0.140625 -5.441406 -0.128906 -5.460938 -0.109375 -5.484375 C -0.015625 -5.503906 0.113281 -5.515625 0.28125 -5.515625 C 0.976562 -5.515625 1.679688 -5.390625 2.390625 -5.140625 C 2.578125 -5.265625 2.820312 -5.328125 3.125 -5.328125 C 3.445312 -5.328125 3.710938 -5.273438 3.921875 -5.171875 C 4.140625 -5.316406 4.5 -5.390625 5 -5.390625 C 5.21875 -5.390625 5.40625 -5.375 5.5625 -5.34375 C 5.5625 -5.476562 5.578125 -5.566406 5.609375 -5.609375 C 5.648438 -5.660156 5.738281 -5.6875 5.875 -5.6875 C 5.988281 -5.6875 6.101562 -5.664062 6.21875 -5.625 C 6.238281 -5.582031 6.25 -5.550781 6.25 -5.53125 C 6.226562 -5.488281 6.21875 -5.445312 6.21875 -5.40625 C 6.269531 -5.40625 6.347656 -5.40625 6.453125 -5.40625 C 6.566406 -5.414062 6.648438 -5.421875 6.703125 -5.421875 C 6.867188 -5.421875 7 -5.410156 7.09375 -5.390625 C 7.082031 -5.484375 7.078125 -5.546875 7.078125 -5.578125 C 7.078125 -5.609375 7.082031 -5.640625 7.09375 -5.671875 C 7.226562 -5.691406 7.367188 -5.703125 7.515625 -5.703125 C 7.742188 -5.703125 7.847656 -5.644531 7.828125 -5.53125 L 7.796875 -5.40625 C 7.867188 -5.40625 7.96875 -5.421875 8.09375 -5.453125 C 8.226562 -5.492188 8.332031 -5.515625 8.40625 -5.515625 C 8.476562 -5.515625 8.519531 -5.421875 8.53125 -5.234375 Z M 5.609375 -1.828125 C 5.609375 -1.890625 5.597656 -2.425781 5.578125 -3.4375 L 5.5625 -4.953125 C 5.007812 -4.953125 4.59375 -4.910156 4.3125 -4.828125 C 4.414062 -4.691406 4.488281 -4.585938 4.53125 -4.515625 C 4.820312 -4.035156 4.96875 -3.503906 4.96875 -2.921875 C 4.96875 -2.554688 4.9375 -2.265625 4.875 -2.046875 C 5.039062 -2.015625 5.285156 -1.941406 5.609375 -1.828125 Z M 5.609375 -1.828125 "/></g></g></g><g fill="#000000" fill-opacity="1"><g transform="translate(48.48925, 27.313898)"><g><path d="M 2.734375 -5.515625 C 2.804688 -5.515625 2.84375 -5.441406 2.84375 -5.296875 C 2.84375 -5.242188 2.832031 -5.164062 2.8125 -5.0625 C 2.78125 -4.945312 2.742188 -4.890625 2.703125 -4.890625 C 2.492188 -4.890625 2.316406 -4.8125 2.171875 -4.65625 C 2.109375 -4.59375 2.015625 -4.488281 1.890625 -4.34375 C 1.609375 -4.0625 1.363281 -3.570312 1.15625 -2.875 C 1.09375 -2.65625 1.0625 -2.335938 1.0625 -1.921875 C 1.0625 -1.429688 1.140625 -1.046875 1.296875 -0.765625 C 1.335938 -0.691406 1.378906 -0.65625 1.421875 -0.65625 C 1.429688 -0.65625 1.441406 -0.660156 1.453125 -0.671875 C 1.503906 -0.847656 1.535156 -0.941406 1.546875 -0.953125 C 1.585938 -1.085938 1.632812 -1.171875 1.6875 -1.203125 C 1.75 -1.242188 1.828125 -1.265625 1.921875 -1.265625 C 2.078125 -1.265625 2.242188 -1.210938 2.421875 -1.109375 C 2.484375 -1.066406 2.515625 -0.992188 2.515625 -0.890625 C 2.515625 -0.734375 2.472656 -0.578125 2.390625 -0.421875 C 2.222656 -0.148438 1.988281 -0.015625 1.6875 -0.015625 C 1.488281 -0.015625 1.210938 -0.195312 0.859375 -0.5625 C 0.773438 -0.644531 0.695312 -0.753906 0.625 -0.890625 C 0.4375 -1.242188 0.34375 -1.65625 0.34375 -2.125 L 0.34375 -2.28125 C 0.351562 -2.363281 0.359375 -2.425781 0.359375 -2.46875 C 0.410156 -2.976562 0.515625 -3.378906 0.671875 -3.671875 C 0.941406 -4.179688 1.191406 -4.546875 1.421875 -4.765625 C 1.109375 -4.867188 0.835938 -4.921875 0.609375 -4.921875 C 0.441406 -4.921875 0.234375 -4.898438 -0.015625 -4.859375 C -0.0546875 -4.921875 -0.0859375 -4.984375 -0.109375 -5.046875 C -0.171875 -5.203125 -0.203125 -5.3125 -0.203125 -5.375 C -0.203125 -5.46875 -0.164062 -5.515625 -0.09375 -5.515625 L 0.34375 -5.515625 C 0.851562 -5.515625 1.34375 -5.363281 1.8125 -5.0625 C 1.894531 -5.125 2.035156 -5.234375 2.234375 -5.390625 C 2.347656 -5.472656 2.476562 -5.515625 2.625 -5.515625 C 2.675781 -5.515625 2.710938 -5.515625 2.734375 -5.515625 Z M 2.734375 -5.515625 "/></g></g></g><g fill="#000000" fill-opacity="1"><g transform="translate(51.114893, 27.313898)"><g><path d="M 5.171875 -4.875 C 5.085938 -4.882812 5.007812 -4.890625 4.9375 -4.890625 C 4.832031 -4.890625 4.765625 -4.875 4.734375 -4.84375 C 4.660156 -4.507812 4.625 -3.988281 4.625 -3.28125 C 4.625 -3.34375 4.628906 -3.066406 4.640625 -2.453125 C 4.628906 -2.273438 4.628906 -1.976562 4.640625 -1.5625 L 4.734375 -0.421875 C 4.765625 -0.378906 4.78125 -0.335938 4.78125 -0.296875 C 4.78125 -0.140625 4.671875 -0.0625 4.453125 -0.0625 C 4.304688 -0.0625 4.171875 -0.0859375 4.046875 -0.140625 L 3.921875 -2.265625 C 3.722656 -2.566406 3.570312 -2.707031 3.46875 -2.6875 C 3.425781 -2.664062 3.335938 -2.546875 3.203125 -2.328125 C 3.066406 -2.109375 2.992188 -2 2.984375 -2 C 2.910156 -2.007812 2.804688 -2.023438 2.671875 -2.046875 C 2.503906 -2.066406 2.410156 -2.109375 2.390625 -2.171875 L 2.296875 -2.796875 C 2.222656 -3.179688 2.140625 -3.375 2.046875 -3.375 C 1.878906 -3.375 1.613281 -3.191406 1.25 -2.828125 C 0.894531 -2.472656 0.707031 -2.210938 0.6875 -2.046875 C 0.664062 -1.898438 0.738281 -1.828125 0.90625 -1.828125 C 1.0625 -1.828125 1.226562 -1.9375 1.40625 -2.15625 C 1.476562 -2.238281 1.539062 -2.28125 1.59375 -2.28125 C 1.707031 -2.28125 1.84375 -2.144531 2 -1.875 C 2.070312 -1.757812 2.101562 -1.671875 2.09375 -1.609375 C 2.0625 -1.484375 1.972656 -1.363281 1.828125 -1.25 C 1.691406 -1.144531 1.5625 -1.09375 1.4375 -1.09375 C 1.164062 -1.113281 0.894531 -1.25 0.625 -1.5 C 0.3125 -1.800781 0.15625 -2.144531 0.15625 -2.53125 C 0.15625 -2.789062 0.226562 -3.019531 0.375 -3.21875 C 0.476562 -3.363281 0.65625 -3.539062 0.90625 -3.75 C 1.320312 -4.0625 1.679688 -4.21875 1.984375 -4.21875 C 2.253906 -4.21875 2.484375 -4.015625 2.671875 -3.609375 C 2.710938 -3.492188 2.765625 -3.332031 2.828125 -3.125 C 3.148438 -3.4375 3.335938 -3.59375 3.390625 -3.59375 C 3.453125 -3.59375 3.550781 -3.53125 3.6875 -3.40625 C 3.820312 -3.28125 3.910156 -3.1875 3.953125 -3.125 L 3.96875 -4.546875 C 3.832031 -4.628906 3.617188 -4.710938 3.328125 -4.796875 C 3.046875 -4.890625 2.816406 -4.945312 2.640625 -4.96875 C 2.390625 -5 2.082031 -5.015625 1.71875 -5.015625 C 1.144531 -5.015625 0.53125 -4.96875 -0.125 -4.875 C -0.25 -4.988281 -0.3125 -5.101562 -0.3125 -5.21875 C -0.3125 -5.3125 -0.285156 -5.390625 -0.234375 -5.453125 C -0.210938 -5.460938 -0.1875 -5.484375 -0.15625 -5.515625 C 0.539062 -5.515625 1.003906 -5.507812 1.234375 -5.5 L 2.25 -5.46875 C 2.9375 -5.457031 3.507812 -5.347656 3.96875 -5.140625 L 4.015625 -5.671875 C 4.046875 -5.703125 4.132812 -5.71875 4.28125 -5.71875 C 4.625 -5.71875 4.789062 -5.691406 4.78125 -5.640625 C 4.789062 -5.585938 4.796875 -5.546875 4.796875 -5.515625 L 4.796875 -5.46875 C 4.867188 -5.476562 5.019531 -5.492188 5.25 -5.515625 C 5.269531 -5.441406 5.28125 -5.363281 5.28125 -5.28125 C 5.28125 -5.070312 5.242188 -4.9375 5.171875 -4.875 Z M 5.171875 -4.875 "/></g></g></g><g fill="#000000" fill-opacity="1"><g transform="translate(56.171358, 27.313898)"><g><path d="M 1.8125 -5.46875 C 1.8125 -5.4375 1.8125 -5.398438 1.8125 -5.359375 L 1.8125 -5.25 C 1.8125 -5.0625 1.785156 -4.953125 1.734375 -4.921875 C 1.691406 -4.890625 1.578125 -4.875 1.390625 -4.875 L 1.265625 -4.875 C 1.222656 -4.875 1.1875 -4.875 1.15625 -4.875 L 1.125 -3.015625 C 1.125 -2.984375 1.140625 -2.554688 1.171875 -1.734375 C 1.179688 -1.585938 1.195312 -1.269531 1.21875 -0.78125 C 1.21875 -0.71875 1.226562 -0.617188 1.25 -0.484375 C 1.269531 -0.347656 1.28125 -0.25 1.28125 -0.1875 C 1.28125 -0.15625 1.273438 -0.132812 1.265625 -0.125 C 1.210938 -0.0703125 1.132812 -0.0390625 1.03125 -0.03125 C 0.925781 -0.0195312 0.832031 -0.015625 0.75 -0.015625 L 0.609375 0.015625 C 0.503906 0.015625 0.453125 -0.03125 0.453125 -0.125 C 0.453125 -0.269531 0.457031 -0.410156 0.46875 -0.546875 C 0.46875 -0.953125 0.46875 -1.15625 0.46875 -1.15625 L 0.515625 -4.453125 C 0.515625 -4.734375 0.492188 -4.875 0.453125 -4.875 C 0.328125 -4.875 0.226562 -4.875 0.15625 -4.875 C 0.0625 -4.875 -0.00390625 -4.878906 -0.046875 -4.890625 C -0.0859375 -5.035156 -0.109375 -5.15625 -0.109375 -5.25 C -0.109375 -5.363281 -0.0859375 -5.441406 -0.046875 -5.484375 C 0.0351562 -5.503906 0.117188 -5.515625 0.203125 -5.515625 C 0.285156 -5.515625 0.375 -5.503906 0.46875 -5.484375 C 0.457031 -5.578125 0.453125 -5.640625 0.453125 -5.671875 L 0.46875 -5.75 C 0.570312 -5.769531 0.691406 -5.78125 0.828125 -5.78125 C 1.085938 -5.78125 1.210938 -5.710938 1.203125 -5.578125 C 1.191406 -5.535156 1.1875 -5.5 1.1875 -5.46875 C 1.332031 -5.46875 1.503906 -5.484375 1.703125 -5.515625 C 1.765625 -5.515625 1.800781 -5.5 1.8125 -5.46875 Z M 1.8125 -5.46875 "/></g></g></g></g></g></g></g></g></g></mask><clipPath id="35fa210ef1"><path d="M 0 1.582031 L 75 1.582031 L 75 33 L 0 33 Z M 0 1.582031 " clip-rule="nonzero"/></clipPath><clipPath id="36f2b3d343"><rect x="0" width="75" y="0" height="33"/></clipPath><clipPath id="46d2501786"><rect x="0" width="75" y="0" height="33"/></clipPath><clipPath id="e140c0e905"><rect x="0" width="75" y="0" height="33"/></clipPath><clipPath id="d9374c7036"><rect x="0" width="75" y="0" height="58"/></clipPath></defs><rect x="-7.5" width="90" fill="#ffffff" y="-6" height="72" fill-opacity="1"/><rect x="-7.5" width="90" fill="#ffffff" y="-6" height="72" fill-opacity="1"/><g transform="matrix(1, 0, 0, 1, 0, 2)"><g clip-path="url(#d9374c7036)"><g clip-path="url(#baa155e458)"><path fill="#9e7a1f" d="M 24.71875 28.035156 C 24.847656 27.992188 24.976562 27.949219 25.105469 27.90625 L 25.496094 27.785156 C 25.757812 27.707031 26.023438 27.628906 26.285156 27.554688 C 26.546875 27.484375 26.8125 27.414062 27.078125 27.34375 C 27.34375 27.277344 27.609375 27.210938 27.875 27.148438 C 28.941406 26.902344 30.019531 26.695312 31.105469 26.535156 C 33.28125 26.214844 35.472656 26.058594 37.671875 26.066406 C 39.875 26.074219 42.0625 26.246094 44.238281 26.578125 C 45.320312 26.746094 46.398438 26.953125 47.464844 27.199219 L 47.863281 27.296875 L 48.0625 27.34375 C 48.128906 27.359375 48.195312 27.378906 48.261719 27.394531 C 48.527344 27.464844 48.792969 27.53125 49.054688 27.605469 C 49.320312 27.679688 49.582031 27.753906 49.84375 27.832031 L 50.234375 27.953125 L 50.625 28.078125 L 49.007812 27.824219 L 48.199219 27.703125 L 47.390625 27.585938 C 46.3125 27.4375 45.234375 27.308594 44.15625 27.203125 C 41.996094 26.988281 39.835938 26.875 37.667969 26.863281 C 35.503906 26.855469 33.34375 26.953125 31.179688 27.15625 C 30.101562 27.257812 29.023438 27.382812 27.945312 27.53125 L 27.140625 27.648438 L 26.332031 27.769531 C 26.066406 27.816406 25.796875 27.859375 25.527344 27.902344 C 25.257812 27.945312 24.988281 27.992188 24.71875 28.035156 Z M 24.71875 28.035156 " fill-opacity="1" fill-rule="nonzero"/></g><g clip-path="url(#81417ee0c3)"><path fill="#165436" d="M 25.621094 25.351562 C 25.398438 21.984375 26.386719 18.636719 28.628906 16.015625 C 29.957031 14.464844 31.617188 13.484375 33.324219 12.402344 C 36.058594 10.667969 37.148438 9.785156 37.511719 9.460938 L 37.617188 7.53125 C 37.371094 7.503906 37.140625 7.433594 36.921875 7.320312 C 36.703125 7.207031 36.511719 7.058594 36.347656 6.878906 C 36.183594 6.695312 36.058594 6.492188 35.96875 6.261719 C 35.882812 6.035156 35.839844 5.796875 35.84375 5.554688 C 35.84375 5.3125 35.890625 5.078125 35.980469 4.851562 C 36.070312 4.625 36.199219 4.417969 36.363281 4.238281 C 36.53125 4.058594 36.726562 3.914062 36.945312 3.804688 C 37.167969 3.695312 37.398438 3.628906 37.644531 3.605469 C 37.476562 3.742188 37.339844 3.90625 37.230469 4.089844 C 37.121094 4.277344 37.046875 4.476562 37.011719 4.691406 C 36.972656 4.902344 36.972656 5.113281 37.011719 5.328125 C 37.050781 5.539062 37.128906 5.738281 37.238281 5.921875 C 37.347656 6.109375 37.488281 6.269531 37.660156 6.40625 C 37.828125 6.542969 38.015625 6.648438 38.222656 6.71875 C 38.429688 6.789062 38.640625 6.824219 38.859375 6.820312 C 39.082031 6.816406 39.292969 6.777344 39.496094 6.699219 C 39.097656 7.261719 38.546875 7.542969 37.851562 7.542969 C 37.808594 7.542969 37.765625 7.542969 37.722656 7.539062 L 37.828125 9.460938 C 38.195312 9.785156 39.285156 10.667969 42.015625 12.402344 C 43.722656 13.484375 45.382812 14.460938 46.710938 16.011719 C 48.964844 18.648438 49.953125 22.015625 49.714844 25.398438 C 48.746094 25.144531 47.757812 24.921875 46.765625 24.722656 C 43.761719 24.132812 40.730469 23.832031 37.667969 23.820312 L 37.492188 23.820312 C 34.472656 23.820312 31.46875 24.105469 28.5625 24.675781 C 27.570312 24.871094 26.585938 25.09375 25.621094 25.351562 Z M 38.003906 5.429688 L 37.886719 6.101562 L 38.503906 5.785156 L 39.117188 6.101562 L 39 5.429688 L 39.5 4.953125 L 38.8125 4.855469 L 38.503906 4.242188 L 38.195312 4.855469 L 37.507812 4.953125 Z M 54.210938 27.449219 C 53.863281 27.316406 53.511719 27.1875 53.15625 27.0625 C 53.070312 27.03125 52.980469 27 52.894531 26.972656 L 52.628906 26.882812 L 52.09375 26.703125 L 51.960938 26.660156 C 51.917969 26.644531 51.871094 26.632812 51.828125 26.617188 L 51.019531 26.371094 C 49.585938 25.945312 48.128906 25.589844 46.648438 25.300781 C 43.683594 24.714844 40.691406 24.417969 37.667969 24.40625 C 34.652344 24.394531 31.632812 24.671875 28.679688 25.25 C 27.203125 25.535156 25.746094 25.898438 24.308594 26.332031 C 23.949219 26.445312 23.589844 26.554688 23.234375 26.671875 C 22.882812 26.792969 22.527344 26.914062 22.175781 27.039062 C 21.824219 27.167969 21.472656 27.300781 21.125 27.433594 C 20.78125 27.574219 20.433594 27.714844 20.089844 27.863281 C 20.457031 27.777344 20.816406 27.691406 21.179688 27.601562 C 21.542969 27.519531 21.90625 27.433594 22.269531 27.347656 C 22.632812 27.269531 22.996094 27.191406 23.359375 27.109375 L 24.449219 26.882812 C 25.90625 26.59375 27.367188 26.347656 28.832031 26.152344 C 30.300781 25.957031 31.769531 25.808594 33.242188 25.710938 C 34.714844 25.613281 36.1875 25.566406 37.664062 25.574219 C 39.136719 25.578125 40.613281 25.636719 42.085938 25.742188 C 43.558594 25.851562 45.027344 26.007812 46.492188 26.203125 C 47.960938 26.402344 49.421875 26.648438 50.878906 26.929688 L 51.425781 27.039062 C 51.609375 27.074219 51.792969 27.105469 51.972656 27.144531 L 53.066406 27.375 L 54.160156 27.617188 C 54.523438 27.699219 54.886719 27.785156 55.253906 27.863281 C 54.90625 27.71875 54.558594 27.582031 54.210938 27.449219 Z M 54.210938 27.449219 " fill-opacity="1" fill-rule="nonzero"/></g><g clip-path="url(#9e026545e1)"><path fill="#d4950a" d="M 0.757812 29.777344 C 9.121094 28.066406 17.921875 28.523438 26.066406 31.085938 C 34.210938 33.652344 41.683594 38.324219 47.558594 44.523438 C 34.992188 36.148438 19 33.003906 4.042969 35.089844 L 0.757812 29.777344 " fill-opacity="1" fill-rule="nonzero"/></g><g clip-path="url(#8aae410374)"><path fill="#d4950a" d="M 61.933594 26.832031 C 59.660156 26.179688 57.046875 25.851562 54.070312 26.042969 C 58.773438 12.304688 40.125 9.898438 37.496094 0.59375 C 34.867188 9.898438 16.21875 12.304688 20.921875 26.042969 C 17.945312 25.851562 15.332031 26.179688 13.058594 26.832031 C 16.90625 27 20.730469 27.597656 24.4375 28.628906 C 18.242188 18.621094 33.039062 11.78125 37.496094 7.738281 C 41.953125 11.78125 56.75 18.621094 50.554688 28.628906 C 54.261719 27.597656 58.089844 27 61.933594 26.832031 " fill-opacity="1" fill-rule="nonzero"/></g><g clip-path="url(#7d59e8bf44)"><path fill="#d4950a" d="M 36.335938 37.082031 C 33.097656 39.210938 30.101562 41.707031 27.433594 44.523438 C 31.222656 41.996094 35.324219 39.949219 39.613281 38.375 C 38.535156 37.914062 37.441406 37.480469 36.335938 37.082031 " fill-opacity="1" fill-rule="nonzero"/></g><g clip-path="url(#b2a85b7263)"><path fill="#d4950a" d="M 48.925781 31.085938 C 45.507812 32.164062 42.210938 33.613281 39.101562 35.386719 C 40.152344 36.050781 41.179688 36.753906 42.183594 37.496094 C 51.417969 34.558594 61.394531 33.757812 70.949219 35.089844 L 74.238281 29.777344 C 65.871094 28.066406 57.070312 28.523438 48.925781 31.085938 " fill-opacity="1" fill-rule="nonzero"/></g><path fill="#ffa700" d="M 43.394531 22.957031 C 43.773438 24.167969 43.761719 25.40625 43.425781 26.539062 C 41.554688 26.289062 39.558594 26.152344 37.480469 26.152344 C 35.402344 26.152344 33.402344 26.289062 31.53125 26.539062 C 30.578125 23.316406 32.394531 19.925781 35.628906 18.921875 C 38.890625 17.898438 42.371094 19.710938 43.394531 22.957031 Z M 43.394531 22.957031 " fill-opacity="1" fill-rule="evenodd"/><path fill="#ffb800" d="M 43.394531 22.957031 C 43.773438 24.167969 43.761719 25.40625 43.425781 26.539062 C 41.554688 26.289062 39.558594 26.152344 37.480469 26.152344 C 35.910156 26.152344 34.386719 26.234375 32.933594 26.371094 C 32.820312 26.132812 32.722656 25.890625 32.644531 25.636719 C 31.992188 23.558594 32.496094 21.394531 33.800781 19.839844 C 34.355469 19.429688 34.964844 19.125 35.628906 18.921875 C 38.890625 17.898438 42.371094 19.710938 43.394531 22.957031 Z M 43.394531 22.957031 " fill-opacity="1" fill-rule="evenodd"/><path fill="#ffc317" d="M 43.394531 22.957031 C 43.660156 23.789062 43.742188 24.636719 43.640625 25.503906 C 43.269531 25.707031 42.878906 25.871094 42.472656 25.996094 C 41.941406 26.167969 41.410156 26.25 40.878906 26.277344 C 40.46875 26.246094 40.058594 26.222656 39.644531 26.203125 C 37.394531 25.84375 35.433594 24.265625 34.703125 21.960938 C 34.441406 21.128906 34.359375 20.28125 34.460938 19.414062 C 34.832031 19.207031 35.222656 19.042969 35.628906 18.921875 C 38.890625 17.898438 42.371094 19.710938 43.394531 22.957031 Z M 43.394531 22.957031 " fill-opacity="1" fill-rule="evenodd"/><path fill="#ffb800" d="M 34.929688 15.335938 C 35.164062 15.269531 35.40625 15.414062 35.46875 15.644531 L 36.042969 17.761719 C 36.105469 17.992188 35.964844 18.234375 35.726562 18.300781 C 35.492188 18.363281 35.25 18.222656 35.179688 17.984375 L 34.613281 15.875 C 34.550781 15.640625 34.691406 15.394531 34.929688 15.335938 Z M 32.695312 20.039062 C 32.605469 20.128906 32.503906 20.171875 32.378906 20.171875 C 32.253906 20.171875 32.148438 20.128906 32.0625 20.039062 L 30.511719 18.496094 C 30.421875 18.410156 30.378906 18.304688 30.378906 18.183594 C 30.378906 18.058594 30.421875 17.957031 30.511719 17.871094 C 30.597656 17.785156 30.703125 17.742188 30.824219 17.742188 C 30.945312 17.742188 31.046875 17.785156 31.136719 17.871094 L 32.695312 19.417969 C 32.777344 19.503906 32.820312 19.609375 32.820312 19.730469 C 32.820312 19.851562 32.777344 19.953125 32.695312 20.039062 Z M 44.007812 26.617188 C 44.007812 26.589844 44.011719 26.566406 44.019531 26.542969 C 44.082031 26.3125 44.324219 26.171875 44.5625 26.234375 L 46.683594 26.796875 C 46.867188 26.847656 46.996094 27.003906 47.015625 27.175781 C 46.0625 26.957031 45.054688 26.765625 44.007812 26.617188 Z M 30.9375 23.058594 C 30.878906 23.292969 30.632812 23.429688 30.394531 23.371094 L 28.269531 22.804688 C 28.035156 22.746094 27.894531 22.5 27.957031 22.265625 C 28.015625 22.035156 28.261719 21.894531 28.5 21.953125 L 30.628906 22.519531 C 30.859375 22.582031 31 22.824219 30.9375 23.058594 Z M 47.003906 22.265625 C 47.0625 22.5 46.921875 22.746094 46.683594 22.804688 L 44.5625 23.371094 C 44.324219 23.429688 44.082031 23.292969 44.019531 23.058594 C 43.957031 22.824219 44.097656 22.578125 44.332031 22.519531 L 46.457031 21.953125 C 46.691406 21.894531 46.933594 22.035156 47.003906 22.265625 Z M 30.9375 26.542969 C 30.945312 26.566406 30.949219 26.589844 30.953125 26.617188 C 29.90625 26.769531 28.898438 26.957031 27.945312 27.175781 C 27.96875 26.980469 28.078125 26.855469 28.269531 26.800781 L 30.394531 26.234375 C 30.632812 26.171875 30.878906 26.3125 30.9375 26.542969 Z M 44.449219 17.871094 C 44.617188 18.039062 44.617188 18.324219 44.449219 18.496094 L 42.894531 20.039062 C 42.71875 20.214844 42.4375 20.214844 42.265625 20.039062 C 42.179688 19.953125 42.136719 19.851562 42.136719 19.730469 C 42.136719 19.609375 42.179688 19.503906 42.265625 19.417969 L 43.824219 17.871094 C 43.910156 17.785156 44.015625 17.742188 44.136719 17.742188 C 44.257812 17.742188 44.359375 17.785156 44.449219 17.871094 Z M 40.027344 15.335938 C 40.265625 15.394531 40.40625 15.640625 40.347656 15.875 L 39.769531 17.984375 C 39.742188 18.101562 39.671875 18.191406 39.566406 18.253906 C 39.464844 18.316406 39.351562 18.332031 39.234375 18.300781 C 38.996094 18.234375 38.855469 17.992188 38.914062 17.761719 L 39.492188 15.644531 C 39.550781 15.414062 39.796875 15.269531 40.027344 15.335938 Z M 40.027344 15.335938 " fill-opacity="1" fill-rule="evenodd"/><g clip-path="url(#b81a4af727)"><path fill="#ffa700" d="M 37.480469 13.175781 C 37.722656 13.175781 37.917969 13.378906 37.917969 13.621094 L 37.917969 17.625 C 37.917969 17.871094 37.722656 18.070312 37.480469 18.070312 C 37.355469 18.070312 37.25 18.027344 37.164062 17.941406 C 37.078125 17.851562 37.035156 17.75 37.03125 17.625 L 37.03125 13.621094 C 37.035156 13.5 37.078125 13.394531 37.164062 13.308594 C 37.25 13.222656 37.355469 13.179688 37.480469 13.175781 Z M 31.617188 21.4375 C 31.496094 21.644531 31.21875 21.71875 31.011719 21.59375 L 27.515625 19.589844 C 27.308594 19.476562 27.234375 19.199219 27.355469 18.988281 C 27.417969 18.882812 27.507812 18.816406 27.628906 18.785156 C 27.746094 18.753906 27.855469 18.769531 27.960938 18.828125 L 31.453125 20.835938 C 31.558594 20.894531 31.628906 20.984375 31.660156 21.101562 C 31.691406 21.21875 31.679688 21.332031 31.617188 21.4375 Z M 34.09375 18.96875 C 33.886719 19.089844 33.609375 19.019531 33.488281 18.8125 L 31.472656 15.339844 C 31.410156 15.234375 31.394531 15.121094 31.425781 15.003906 C 31.460938 14.882812 31.527344 14.792969 31.636719 14.734375 C 31.84375 14.617188 32.117188 14.683594 32.242188 14.898438 L 34.257812 18.367188 C 34.320312 18.472656 34.335938 18.585938 34.300781 18.703125 C 34.269531 18.820312 34.199219 18.910156 34.09375 18.96875 Z M 43.324219 14.734375 C 43.429688 14.796875 43.5 14.886719 43.53125 15.003906 C 43.5625 15.121094 43.550781 15.234375 43.488281 15.339844 L 41.46875 18.8125 C 41.347656 19.019531 41.074219 19.089844 40.867188 18.96875 C 40.757812 18.910156 40.6875 18.820312 40.65625 18.703125 C 40.625 18.585938 40.640625 18.472656 40.699219 18.367188 L 42.71875 14.898438 C 42.839844 14.683594 43.113281 14.617188 43.324219 14.734375 Z M 47.601562 18.988281 C 47.722656 19.199219 47.648438 19.476562 47.4375 19.589844 L 43.945312 21.59375 C 43.738281 21.71875 43.464844 21.644531 43.339844 21.4375 C 43.28125 21.332031 43.265625 21.21875 43.296875 21.101562 C 43.328125 20.984375 43.398438 20.894531 43.507812 20.835938 L 46.996094 18.828125 C 47.203125 18.707031 47.480469 18.78125 47.601562 18.988281 Z M 49.164062 24.804688 C 49.164062 24.925781 49.121094 25.027344 49.035156 25.113281 C 48.949219 25.199219 48.847656 25.242188 48.726562 25.242188 L 44.691406 25.242188 C 44.570312 25.242188 44.464844 25.199219 44.378906 25.113281 C 44.292969 25.027344 44.25 24.925781 44.25 24.804688 C 44.25 24.5625 44.445312 24.363281 44.691406 24.363281 L 48.726562 24.363281 C 48.96875 24.363281 49.164062 24.5625 49.164062 24.804688 Z M 30.707031 24.804688 C 30.707031 24.925781 30.664062 25.027344 30.578125 25.113281 C 30.492188 25.199219 30.386719 25.242188 30.265625 25.242188 L 26.234375 25.242188 C 26.113281 25.242188 26.007812 25.199219 25.921875 25.113281 C 25.835938 25.027344 25.792969 24.925781 25.792969 24.804688 C 25.792969 24.5625 25.988281 24.363281 26.234375 24.363281 L 30.265625 24.363281 C 30.511719 24.363281 30.707031 24.5625 30.707031 24.804688 Z M 30.707031 24.804688 " fill-opacity="1" fill-rule="evenodd"/></g><g clip-path="url(#756a63769e)"><path stroke-linecap="butt" transform="matrix(0.0105182, 0, 0, 0.0104599, 25.253781, 13.177076)" fill-opacity="1" fill="#ffa100" fill-rule="evenodd" stroke-linejoin="miter" d="M 1162.431781 1278.948088 C 1610.316236 1278.948088 2018.834395 1348.036643 2324.480254 1461.939396 C 1992.837785 1393.971196 1592.861369 1354.011869 1162.431781 1354.011869 C 731.630813 1354.011869 332.025777 1393.971196 0.0119281 1461.939396 C 305.657787 1348.036643 713.804566 1278.948088 1162.431781 1278.948088 Z M 1162.431781 1278.948088 " stroke="#000000" stroke-width="0.57" stroke-opacity="1" stroke-miterlimit="10"/></g><g transform="matrix(1, 0, 0, 1, 0, 25)"><g clip-path="url(#e140c0e905)"><g clip-path="url(#a834a693c2)"><g transform="matrix(1, 0, 0, 1, 0, -0.000000000000003553)"><g clip-path="url(#46d2501786)"><g clip-path="url(#821134dbc5)"><g mask="url(#90cd588167)"><g transform="matrix(1, 0, 0, 1, 0, -0.000000000000003553)"><g clip-path="url(#36f2b3d343)"><g clip-path="url(#35fa210ef1)"><path fill="url(#656b0a222f)" d="M 0 1.582031 L 0 33 L 75 33 L 75 1.582031 Z M 0 1.582031 " fill-rule="nonzero"/></g></g></g></g></g></g></g></g></g></g></g></g></svg>